<?xml version="1.0" encoding="UTF-8" standalone="no"?>
<!--?xml version="1.0" standalone="no"?-->

<svg
   xmlns:dc="http://purl.org/dc/elements/1.1/"
   xmlns:cc="http://creativecommons.org/ns#"
   xmlns:rdf="http://www.w3.org/1999/02/22-rdf-syntax-ns#"
   xmlns:svg="http://www.w3.org/2000/svg"
   xmlns="http://www.w3.org/2000/svg"
   xmlns:xlink="http://www.w3.org/1999/xlink"
   xmlns:sodipodi="http://sodipodi.sourceforge.net/DTD/sodipodi-0.dtd"
   xmlns:inkscape="http://www.inkscape.org/namespaces/inkscape"
   width="300pt"
   height="300pt"
   viewBox="0 0 300 300"
   id="svg2"
   version="1.1"
   inkscape:version="0.91 r13725"
   sodipodi:docname="ventilator-python.svg">
  <metadata
     id="metadata18">
    <rdf:RDF>
      <cc:Work
         rdf:about="">
        <dc:format>image/svg+xml</dc:format>
        <dc:type
           rdf:resource="http://purl.org/dc/dcmitype/StillImage" />
        <dc:title></dc:title>
      </cc:Work>
    </rdf:RDF>
  </metadata>
  <defs
     id="defs16">
    <linearGradient
       inkscape:collect="always"
       xlink:href="#linearGradient4671"
       id="linearGradient1475"
       gradientUnits="userSpaceOnUse"
       gradientTransform="matrix(0.4500328,0,0,0.4543776,93.652938,200.63133)"
       x1="150.96111"
       y1="192.35176"
       x2="112.03144"
       y2="137.27299" />
    <linearGradient
       id="linearGradient4671">
      <stop
         style="stop-color:#ffd43b;stop-opacity:1;"
         offset="0"
         id="stop4673" />
      <stop
         style="stop-color:#ffe873;stop-opacity:1"
         offset="1"
         id="stop4675" />
    </linearGradient>
    <linearGradient
       inkscape:collect="always"
       xlink:href="#linearGradient4689"
       id="linearGradient1478"
       gradientUnits="userSpaceOnUse"
       gradientTransform="matrix(0.4500328,0,0,0.4543776,93.652938,200.63133)"
       x1="26.648937"
       y1="20.603781"
       x2="135.66525"
       y2="114.39767" />
    <linearGradient
       id="linearGradient4689">
      <stop
         style="stop-color:#5a9fd4;stop-opacity:1;"
         offset="0"
         id="stop4691" />
      <stop
         style="stop-color:#306998;stop-opacity:1;"
         offset="1"
         id="stop4693" />
    </linearGradient>
  </defs>
  <sodipodi:namedview
     pagecolor="#ffffff"
     bordercolor="#666666"
     borderopacity="1"
     objecttolerance="10"
     gridtolerance="10"
     guidetolerance="10"
     inkscape:pageopacity="0"
     inkscape:pageshadow="2"
     inkscape:window-width="1458"
     inkscape:window-height="895"
     id="namedview14"
     showgrid="false"
     inkscape:zoom="1.2586667"
     inkscape:cx="-21.516003"
     inkscape:cy="187.5"
     inkscape:window-x="1675"
     inkscape:window-y="77"
     inkscape:window-maximized="0"
     inkscape:current-layer="svg2" />
  <path
     inkscape:connector-curvature="0"
     style="fill:#b82b2b;stroke:none;stroke-width:20;fill-opacity:1"
     class="node"
     id="node1"
     d="m 159.76652,42.7 c -0.3,25.4 -0.1,43 0.5,44.8 1.5,4.5 6.5,9.4 10.6,10.1 4.7,0.9 18.8,-1.1 28.1,-3.9 5.6,-1.8 8.3,-2.1 10.7,-1.5 4.9,1.3 11.3,6 18.2,13.3 l 6.1,6.6 3.5,-2.8 c 1.9,-1.5 3.5,-3.4 3.5,-4.1 0,-1.3 -10.9,-12.6 -15.6,-16.3 -1.1,-0.9 -5.2,-2.8 -9.1,-4.4 -7.9,-3 -9.5,-3 -20.8,0.5 -3.8,1.1 -8.1,2.3 -9.5,2.5 -1.4,0.2 -3,0.4 -3.5,0.5 -0.6,0.1 -2.9,0.2 -5.2,0.1 -7.6,-0.2 -7.3,1.9 -7.3,-45.2 l 0,-41.9 -4.9,0 -4.8,0 -0.5,41.7 z" />
  <path
     inkscape:connector-curvature="0"
     style="fill:#b51a1a;stroke:none;stroke-width:20"
     class="node"
     id="node2"
     d="m 135.96652,45.5 c 0,26.2 -0.6,31.4 -3.9,33.4 -1.1,0.7 -1.5,0.6 -12.8,-5.7 -8.4,-4.7 -16.6,-6.3 -24.899997,-4.8 -12.7,2.4 -22,9 -31.4,22.7 -5.2,7.5 -16,28.9 -16,31.7 0,0.9 1.9,2.2 4.5,3.1 l 4.6,1.5 1,-2.7 c 6.3,-16.6 16.9,-33.5 25.4,-40.2 10.1,-8 23.699997,-8 35.999997,0 3,2 3.8,2.4 8.7,4.2 3,1.1 8.2,0.3 11.5,-1.9 1.2,-0.8 3.4,-3.9 4.7,-6.8 2.5,-5.1 2.5,-5.8 2.6,-29.1 0,-13.2 0.1,-25.6 0,-27.7 l 0,-3.7 -5,0 -5,0 0,26 z" />
  <path
     inkscape:connector-curvature="0"
     style="fill:#131313;stroke:none;stroke-width:20"
     class="node"
     id="node3"
     d="m 86.166523,35.5 c -19.3,10 -42.8,51.9 -54.6,97.4 -8.8,33.5 -11.7,63.4 -9.2,95.1 3.3,41.4 9.8,57.7 22.9,57.4 9.1,-0.2 15.7,-5.9 38,-32.6 5.3,-6.4 15.7,-18.1 22.999997,-25.9 30.3,-32.4 35.6,-44.1 37.7,-83.4 0.3,-5.5 0.9,-13.8 1.4,-18.5 0.6,-4.7 1.1,-11.7 1.3,-15.5 l 0.3,-7 -4.7,-0.3 c -2.7,-0.2 -4.8,0 -4.8,0.3 0,2.5 -3.1,39.4 -3.4,41 -0.3,1.1 -0.8,5.8 -1.1,10.5 -2.1,27.5 -9.1,40 -41.599997,73.6 -4.3,4.5 -12.4,13.7 -18,20.5 -5.6,6.8 -13.4,15.7 -17.5,19.6 -8.5,8.5 -11.2,9.3 -14.4,4.1 -9.4,-15.2 -12.7,-75.7 -6,-108.8 1,-5.2 2.2,-11.9 2.6,-14.9 0.4,-3 1.3,-6.6 2,-8 0.8,-1.4 1.4,-3.6 1.4,-4.8 0,-1.2 2,-7.9 4.4,-15 9.8,-28.9 23,-53.8 35.8,-67.8 6.5,-7.2 9.8,-8.9 15.3,-8.1 4.699997,0.8 13.699997,8 17.499997,14.1 2.4,3.9 4,4.2 8.7,1.7 3.2,-1.7 3.2,-1.7 1.7,-4.9 -2.9,-6 -12.1,-15 -18.6,-18.2 -6.999997,-3.5 -15.199997,-4.2 -20.099997,-1.6 z" />
  <path
     inkscape:connector-curvature="0"
     style="fill:#131313;stroke:none;stroke-width:20"
     class="node"
     id="node4"
     d="m 198.46652,34.9 c -7.7,2.4 -15.1,8.4 -21.1,17.3 l -3.9,5.7 2.2,1.5 c 1.3,0.8 3.5,1.8 4.9,2.1 2.3,0.6 3.1,0 6.1,-4.3 7.6,-10.5 16.9,-15.3 23.4,-11.9 10,5.3 25.2,27.9 36.4,54.5 11.1,26.2 17.7,52.8 20.5,82.7 1.8,19.1 1.8,31.2 0.1,50 -2.5,26.2 -7.1,42.5 -12.1,42.5 -4.7,0 -13.5,-8.6 -30.4,-29.5 -4,-5 -11.6,-13.5 -16.9,-19 -5.4,-5.6 -12.6,-13.4 -16.2,-17.5 -3.6,-4.1 -6.7,-7.7 -7,-8 -1.2,-1.1 -7.8,-11.7 -9.7,-15.5 -4.8,-9.6 -6.5,-16.8 -7.4,-31.5 -0.5,-8 -1.3,-17.9 -1.7,-22 l -0.7,-7.5 -5.4,-0.3 -5.3,-0.3 0.6,4.8 c 0.3,2.6 0.8,8.8 1.1,13.8 1.3,19.1 2.6,29.6 4.6,35.5 5.2,15.8 14.5,29.3 36.6,52.7 6.8,7.2 17.3,19 23.4,26.4 15.7,18.9 20.2,23.3 27.2,26.4 17,7.7 25.8,-7.4 29.7,-51 4.8,-53.8 -7.4,-114.2 -32.3,-159.5 -9.6,-17.6 -22.8,-33.5 -30.9,-37.3 -3.7,-1.7 -11.4,-2.1 -15.8,-0.8 z" />
  <path
     inkscape:connector-curvature="0"
     style="display:inline;fill:#b82b2b;stroke:none;stroke-width:20"
     class="node"
     id="node5"
     d="m 121.26652,82.6 c -6.2,2.7 -6.8,2.8 -10,1.4 -5.6,-2.3 -13.299997,-2.9 -18.599997,-1.5 -5.3,1.4 -16.2,7 -16.2,8.3 0,1.4 5.4,6.7 6.7,6.7 0.7,0 2.2,-0.9 3.2,-1.9 2.4,-2.4 11.2,-5.2 14.099997,-4.4 2.8,0.7 2.5,1.2 -3.999997,6.5 -7.8,6.3 -14.5,14.9 -19.6,25.3 -4.2,8.8 -5.5,13.6 -6.9,25.7 l -0.6,5.8 -3.7,0 c -4.2,0 -10.2,2.5 -16.5,6.9 -5,3.4 -13.2,13.5 -12.4,15.3 0.3,0.7 2.2,2.2 4.2,3.3 3.7,1.9 3.8,1.9 4.9,0.1 4.2,-7.2 14.7,-14.2 19.3,-13 1.3,0.4 2.3,1 2.3,1.5 0,0.5 -1.4,5.5 -3,11.2 -4.1,14.4 -10.2,28.6 -16,37.7 -1.6,2.5 -2.9,4.9 -2.9,5.5 -0.1,1 6.2,5.5 7.7,5.5 2.1,0 15.6,-27.5 19.2,-39.4 4.2,-13.6 4.6,-15.3 6.5,-28.6 2.4,-16.5 3.6,-23 4.6,-23 1.1,0 6.9,7.3 11.2,14.1 4.3,6.7 8.499997,19 9.399997,27 l 0.6,5.9 4.8,0 4.9,0 0,-4.8 c 0,-7.1 -4.4,-21.8 -8.9,-30.1 -4.1,-7.4 -8.099997,-12.8 -14.699997,-19.7 -1.9,-2 -3.4,-4.1 -3.4,-4.7 0,-1.9 9,-13.5 14.399997,-18.5 3.1,-2.8 8.2,-6.5 11.4,-8.4 6.7,-3.9 17.2,-8.7 19,-8.8 1.5,0 1.5,0 0.1,-5.6 -1.3,-5.2 -1.9,-5.3 -11.1,-1.3 z" />
  <path
     inkscape:connector-curvature="0"
     style="fill:#b82b2b;stroke:none;stroke-width:20;fill-opacity:1"
     class="node"
     id="node6"
     d="m 162.86652,96.1 c 1.6,4.4 3,6.4 5.1,7.5 20.6,10.7 38.8,26.6 49.8,43.4 5.9,9.2 11.7,20.2 11.7,22.2 0,0.7 -2.1,2.5 -4.8,4 -7.3,4.1 -15.9,13.3 -19.4,20.8 -1.6,3.6 -3.3,7.2 -3.8,8 -0.4,0.9 -1.1,3.4 -1.4,5.7 -0.7,3.9 -0.7,4 2.5,4.7 6.2,1.2 6.7,0.9 8.3,-4.7 2.2,-7.5 6.1,-14.1 11.6,-19.6 4.4,-4.4 10.4,-8 11.5,-6.9 1.4,1.3 6.6,27.5 7.2,35.6 0.3,5.1 0.9,9.4 1.2,9.6 0.3,0.2 2.6,0.7 5,1.1 l 4.4,0.7 -0.6,-11.3 c -1.1,-23.5 -9.2,-51.6 -19.9,-69 -1.5,-2.5 -2.8,-5 -2.8,-5.4 0,-1.1 7.8,0.3 11.2,2.1 1.6,0.9 3.1,1.4 3.2,1.2 0.2,-0.2 1.5,-2 3,-4 l 2.7,-3.7 -2.3,-1.5 c -3.3,-2.2 -14.4,-4.9 -20.5,-5 l -5.2,-0.1 -10.9,-10.5 c -6,-5.8 -12.8,-11.8 -15.3,-13.5 -2.4,-1.6 -4.6,-3.3 -4.9,-3.6 -2.2,-2.5 -25.2,-13.9 -28.1,-13.9 -0.4,0 0.2,2.7 1.5,6.1 z" />
  <g
     transform="matrix(0.1,0,0,-0.1,21.466523,300)"
     id="g12"
     style="fill:#a2a2a2;stroke:none" />
  <path
     inkscape:connector-curvature="0"
     style="fill:url(#linearGradient1478);fill-opacity:1"
     d="m 149.58087,209.99396 c -3.66692,0.017 -7.16875,0.32977 -10.25,0.875 -9.07697,1.6036 -10.725,4.96008 -10.725,11.15 l 0,8.175 21.45,0 0,2.725 -21.45,0 -8.05,0 c -6.23397,0 -11.69261,3.74697 -13.4,10.875 -1.96946,8.17037 -2.05681,13.26882 0,21.8 1.52474,6.35028 5.16603,10.875 11.4,10.875 l 7.375,0 0,-9.8 c 0,-7.07992 6.12571,-13.325 13.4,-13.325 l 21.425,0 c 5.96396,0 10.725,-4.91053 10.725,-10.9 l 0,-20.425 c 0,-5.81307 -4.90399,-10.17982 -10.725,-11.15 -3.68479,-0.61338 -7.50808,-0.89204 -11.175,-0.875 z m -11.6,6.575 c 2.21564,0 4.025,1.83892 4.025,4.1 0,2.25307 -1.80936,4.075 -4.025,4.075 -2.22358,0 -4.025,-1.82193 -4.025,-4.075 0,-2.26108 1.80142,-4.1 4.025,-4.1 z"
     id="path1948" />
  <path
     inkscape:connector-curvature="0"
     style="fill:url(#linearGradient1475);fill-opacity:1"
     d="m 174.15587,232.91896 0,9.525 c 0,7.3846 -6.26072,13.6 -13.4,13.6 l -21.425,0 c -5.86867,0 -10.725,5.02279 -10.725,10.9 l 0,20.425 c 0,5.81307 5.05487,9.23226 10.725,10.9 6.78986,1.99649 13.30099,2.3573 21.425,0 5.40012,-1.56351 10.725,-4.71009 10.725,-10.9 l 0,-8.175 -21.425,0 0,-2.725 21.425,0 10.725,0 c 6.23397,0 8.557,-4.34833 10.72499,-10.875 2.23947,-6.71911 2.14418,-13.18062 0,-21.8 -1.54062,-6.20595 -4.48309,-10.875 -10.72499,-10.875 l -8.05,0 z m -12.05,51.725 c 2.22358,0 4.025,1.82193 4.025,4.075 0,2.26108 -1.80142,4.1 -4.025,4.1 -2.21564,0 -4.025,-1.83892 -4.025,-4.1 0,-2.25307 1.80936,-4.075 4.025,-4.075 z"
     id="path1950" />
</svg>
