<?xml version="1.0" encoding="UTF-8" standalone="no"?>
<!--?xml version="1.0" standalone="no"?-->

<svg
   xmlns:dc="http://purl.org/dc/elements/1.1/"
   xmlns:cc="http://creativecommons.org/ns#"
   xmlns:rdf="http://www.w3.org/1999/02/22-rdf-syntax-ns#"
   xmlns:svg="http://www.w3.org/2000/svg"
   xmlns="http://www.w3.org/2000/svg"
   xmlns:xlink="http://www.w3.org/1999/xlink"
   xmlns:sodipodi="http://sodipodi.sourceforge.net/DTD/sodipodi-0.dtd"
   xmlns:inkscape="http://www.inkscape.org/namespaces/inkscape"
   width="300pt"
   height="300pt"
   viewBox="0 0 300 300"
   id="svg2"
   version="1.1"
   inkscape:version="0.91 r13725"
   sodipodi:docname="ventilator-python.svg">
  <metadata
     id="metadata18">
    <rdf:RDF>
      <cc:Work
         rdf:about="">
        <dc:format>image/svg+xml</dc:format>
        <dc:type
           rdf:resource="http://purl.org/dc/dcmitype/StillImage" />
        <dc:title></dc:title>
      </cc:Work>
    </rdf:RDF>
  </metadata>
  <defs
     id="defs16">
    <linearGradient
       inkscape:collect="always"
       xlink:href="#linearGradient4671"
       id="linearGradient1475"
       gradientUnits="userSpaceOnUse"
       gradientTransform="matrix(0.4500328,0,0,0.4543776,93.652938,200.63133)"
       x1="150.96111"
       y1="192.35176"
       x2="112.03144"
       y2="137.27299" />
    <linearGradient
       id="linearGradient4671">
      <stop
         style="stop-color:#ffd43b;stop-opacity:1;"
         offset="0"
         id="stop4673" />
      <stop
         style="stop-color:#ffe873;stop-opacity:1"
         offset="1"
         id="stop4675" />
    </linearGradient>
    <linearGradient
       inkscape:collect="always"
       xlink:href="#linearGradient4689"
       id="linearGradient1478"
       gradientUnits="userSpaceOnUse"
       gradientTransform="matrix(0.4500328,0,0,0.4543776,93.652938,200.63133)"
       x1="26.648937"
       y1="20.603781"
       x2="135.66525"
       y2="114.39767" />
    <linearGradient
       id="linearGradient4689">
      <stop
         style="stop-color:#5a9fd4;stop-opacity:1;"
         offset="0"
         id="stop4691" />
      <stop
         style="stop-color:#306998;stop-opacity:1;"
         offset="1"
         id="stop4693" />
    </linearGradient>
  </defs>
  <sodipodi:namedview
     pagecolor="#ffffff"
     bordercolor="#666666"
     borderopacity="1"
     objecttolerance="10"
     gridtolerance="10"
     guidetolerance="10"
     inkscape:pageopacity="0"
     inkscape:pageshadow="2"
     inkscape:window-width="1920"
     inkscape:window-height="1008"
     id="namedview14"
     showgrid="false"
     inkscape:zoom="1.7800235"
     inkscape:cx="-11.684672"
     inkscape:cy="187.5"
     inkscape:window-x="1440"
     inkscape:window-y="0"
     inkscape:window-maximized="1"
     inkscape:current-layer="svg2" />
  <g
     transform="matrix(0.1,0,0,-0.1,21.466523,292)"
     id="g4"
     style="fill:#131313;stroke:none">
    <path
       d="m 1358,2583 c -3,-254 -1,-430 5,-448 15,-45 65,-94 106,-101 47,-9 188,11 281,39 56,18 83,21 107,15 49,-13 113,-60 182,-133 l 61,-66 35,28 c 19,15 35,34 35,41 0,13 -109,126 -156,163 -11,9 -52,28 -91,44 -79,30 -95,30 -208,-5 -38,-11 -81,-23 -95,-25 -14,-2 -30,-4 -35,-5 -6,-1 -29,-2 -52,-1 -76,2 -73,-19 -73,452 l 0,419 -49,0 -48,0 -5,-417 z"
       id="node1"
       class="node"
       transform="translate(25,-90)"
       style="fill:#0c8030;stroke-width:20"
       inkscape:connector-curvature="0" />
    <path
       d="m 1200,2490 c 0,-262 -6,-314 -39,-334 -11,-7 -15,-6 -128,57 -84,47 -166,63 -249,48 -127,-24 -220,-90 -314,-227 -52,-75 -160,-289 -160,-317 0,-9 19,-22 45,-31 l 46,-15 10,27 c 63,166 169,335 254,402 101,80 237,80 360,0 30,-20 38,-24 87,-42 30,-11 82,-3 115,19 12,8 34,39 47,68 25,51 25,58 26,291 0,132 1,256 0,277 l 0,37 -50,0 -50,0 0,-260 z"
       id="node2"
       class="node"
       transform="translate(-55,-25)"
       style="fill:#b51a1a;stroke-width:20"
       inkscape:connector-curvature="0" />
    <path
       d="M 647,2565 C 454,2465 219,2046 101,1591 13,1256 -16,957 9,640 42,226 107,63 238,66 c 91,2 157,59 380,326 53,64 157,181 230,259 303,324 356,441 377,834 3,55 9,138 14,185 6,47 11,117 13,155 l 3,70 -47,3 c -27,2 -48,0 -48,-3 0,-25 -31,-394 -34,-410 -3,-11 -8,-58 -11,-105 C 1094,1105 1024,980 699,644 656,599 575,507 519,439 463,371 385,282 344,243 259,158 232,150 200,202 106,354 73,959 140,1290 c 10,52 22,119 26,149 4,30 13,66 20,80 8,14 14,36 14,48 0,12 20,79 44,150 98,289 230,538 358,678 65,72 98,89 153,81 47,-8 137,-80 175,-141 24,-39 40,-42 87,-17 32,17 32,17 17,49 -29,60 -121,150 -186,182 -70,35 -152,42 -201,16 z"
       id="node3"
       class="node"
       style="stroke-width:20"
       inkscape:connector-curvature="0" />
    <path
       d="m 1770,2571 c -77,-24 -151,-84 -211,-173 l -39,-57 22,-15 c 13,-8 35,-18 49,-21 23,-6 31,0 61,43 76,105 169,153 234,119 100,-53 252,-279 364,-545 111,-262 177,-528 205,-827 18,-191 18,-312 1,-500 -25,-262 -71,-425 -121,-425 -47,0 -135,86 -304,295 -40,50 -116,135 -169,190 -54,56 -126,134 -162,175 -36,41 -67,77 -70,80 -12,11 -78,117 -97,155 -48,96 -65,168 -74,315 -5,80 -13,179 -17,220 l -7,75 -54,3 -53,3 6,-48 c 3,-26 8,-88 11,-138 13,-191 26,-296 46,-355 52,-158 145,-293 366,-527 68,-72 173,-190 234,-264 157,-189 202,-233 272,-264 170,-77 258,74 297,510 48,538 -74,1142 -323,1595 -96,176 -228,335 -309,373 -37,17 -114,21 -158,8 z"
       id="node4"
       class="node"
       style="stroke-width:20"
       inkscape:connector-curvature="0" />
    <path
       d="m 998,2009 c -62,-27 -68,-28 -100,-14 -56,23 -133,29 -186,15 -53,-14 -162,-70 -162,-83 0,-14 54,-67 67,-67 7,0 22,9 32,19 24,24 112,52 141,44 28,-7 25,-12 -40,-65 -78,-63 -145,-149 -196,-253 -42,-88 -55,-136 -69,-257 l -6,-58 -37,0 c -42,0 -102,-25 -165,-69 -50,-34 -132,-135 -124,-153 3,-7 22,-22 42,-33 37,-19 38,-19 49,-1 42,72 147,142 193,130 13,-4 23,-10 23,-15 0,-5 -14,-55 -30,-112 C 389,893 328,751 270,660 c -16,-25 -29,-49 -29,-55 -1,-10 62,-55 77,-55 21,0 156,275 192,394 42,136 46,153 65,286 24,165 36,230 46,230 11,0 69,-73 112,-141 43,-67 85,-190 94,-270 l 6,-59 48,0 49,0 0,48 c 0,71 -44,218 -89,301 -41,74 -81,128 -147,197 -19,20 -34,41 -34,47 0,19 90,135 144,185 31,28 82,65 114,84 67,39 172,87 190,88 15,0 15,0 1,56 -13,52 -19,53 -111,13 z"
       id="node5"
       class="node"
       transform="translate(0,85)"
       style="display:inline;fill:#b82b2b;stroke:none;stroke-width:20"
       inkscape:connector-curvature="0" />
    <path
       d="m 1414,1959 c 16,-44 30,-64 51,-75 206,-107 388,-266 498,-434 59,-92 117,-202 117,-222 0,-7 -21,-25 -48,-40 -73,-41 -159,-133 -194,-208 -16,-36 -33,-72 -38,-80 -4,-9 -11,-34 -14,-57 -7,-39 -7,-40 25,-47 62,-12 67,-9 83,47 22,75 61,141 116,196 44,44 104,80 115,69 14,-13 66,-275 72,-356 3,-51 9,-94 12,-96 3,-2 26,-7 50,-11 l 44,-7 -6,113 c -11,235 -92,516 -199,690 -15,25 -28,50 -28,54 0,11 78,-3 112,-21 16,-9 31,-14 32,-12 2,2 15,20 30,40 l 27,37 -23,15 c -33,22 -144,49 -205,50 l -52,1 -109,105 c -60,58 -128,118 -153,135 -24,16 -46,33 -49,36 -22,25 -252,139 -281,139 -4,0 2,-27 15,-61 z"
       id="node6"
       class="node"
       style="fill:#0d821a;stroke-width:20"
       inkscape:connector-curvature="0" />
  </g>
  <g
     transform="matrix(0.1,0,0,-0.1,21.466523,300)"
     id="g12"
     style="fill:#a2a2a2;stroke:none" />
  <path
     inkscape:connector-curvature="0"
     style="fill:url(#linearGradient1478);fill-opacity:1"
     d="m 149.58087,209.99396 c -3.66692,0.017 -7.16875,0.32977 -10.25,0.875 -9.07697,1.6036 -10.725,4.96008 -10.725,11.15 l 0,8.175 21.45,0 0,2.725 -21.45,0 -8.05,0 c -6.23397,0 -11.69261,3.74697 -13.4,10.875 -1.96946,8.17037 -2.05681,13.26882 0,21.8 1.52474,6.35028 5.16603,10.875 11.4,10.875 l 7.375,0 0,-9.8 c 0,-7.07992 6.12571,-13.325 13.4,-13.325 l 21.425,0 c 5.96396,0 10.725,-4.91053 10.725,-10.9 l 0,-20.425 c 0,-5.81307 -4.90399,-10.17982 -10.725,-11.15 -3.68479,-0.61338 -7.50808,-0.89204 -11.175,-0.875 z m -11.6,6.575 c 2.21564,0 4.025,1.83892 4.025,4.1 0,2.25307 -1.80936,4.075 -4.025,4.075 -2.22358,0 -4.025,-1.82193 -4.025,-4.075 0,-2.26108 1.80142,-4.1 4.025,-4.1 z"
     id="path1948" />
  <path
     inkscape:connector-curvature="0"
     style="fill:url(#linearGradient1475);fill-opacity:1"
     d="m 174.15587,232.91896 0,9.525 c 0,7.3846 -6.26072,13.6 -13.4,13.6 l -21.425,0 c -5.86867,0 -10.725,5.02279 -10.725,10.9 l 0,20.425 c 0,5.81307 5.05487,9.23226 10.725,10.9 6.78986,1.99649 13.30099,2.3573 21.425,0 5.40012,-1.56351 10.725,-4.71009 10.725,-10.9 l 0,-8.175 -21.425,0 0,-2.725 21.425,0 10.725,0 c 6.23397,0 8.557,-4.34833 10.72499,-10.875 2.23947,-6.71911 2.14418,-13.18062 0,-21.8 -1.54062,-6.20595 -4.48309,-10.875 -10.72499,-10.875 l -8.05,0 z m -12.05,51.725 c 2.22358,0 4.025,1.82193 4.025,4.075 0,2.26108 -1.80142,4.1 -4.025,4.1 -2.21564,0 -4.025,-1.83892 -4.025,-4.1 0,-2.25307 1.80936,-4.075 4.025,-4.075 z"
     id="path1950" />
</svg>
